<?xml version="1.0" encoding="UTF-8" standalone="no"?>
<!DOCTYPE svg PUBLIC "-//W3C//DTD SVG 1.1//EN" "http://www.w3.org/Graphics/SVG/1.1/DTD/svg11.dtd">
<svg width="100%" height="100%" viewBox="0 0 100 44" version="1.1" xmlns="http://www.w3.org/2000/svg" xmlns:xlink="http://www.w3.org/1999/xlink" xml:space="preserve" xmlns:serif="http://www.serif.com/" style="fill-rule:evenodd;clip-rule:evenodd;stroke-linejoin:round;stroke-miterlimit:2;">
    <path d="M0.717,39.919L1.687,39.919L1.687,33.188L0.703,33.188L0.703,32.152L2.813,32.152L2.813,35.152C3.476,34.446 4.243,34.111 5.189,34.111C7.199,34.111 8.637,35.646 8.637,37.611C8.637,39.596 7.17,41.121 5.151,41.121C4.243,41.121 3.535,40.801 2.833,40.087L2.833,40.975L0.717,40.975L0.717,39.919ZM5.129,35.199C3.883,35.199 2.813,36.23 2.813,37.647C2.813,38.977 3.883,40.029 5.113,40.029C6.367,40.029 7.434,39.025 7.434,37.586C7.434,36.194 6.367,35.2 5.129,35.2L5.129,35.199ZM10.097,42.08L11.14,42.08L11.663,40.774L9.502,35.324L8.62,35.324L8.62,34.271L11.597,34.271L11.597,35.325L10.678,35.325L12.242,39.305L13.817,35.325L12.902,35.325L12.902,34.27L15.867,34.27L15.867,35.324L14.997,35.324L12.317,42.079L13.245,42.079L13.245,43.129L10.095,43.129L10.095,42.079L10.097,42.08ZM22.851,36.554L28.211,36.554L28.211,40.974L27.258,40.974L27.258,39.582C26.288,40.638 25.182,41.149 23.849,41.149C21.204,41.149 19.329,39.082 19.329,36.503C19.329,34.119 21.242,31.973 23.964,31.973C24.981,31.973 25.792,32.258 26.65,32.894L26.65,32.152L27.615,32.152L27.615,34.518L26.524,34.518C25.764,33.638 24.938,33.212 23.895,33.212C22.009,33.212 20.618,34.742 20.618,36.542C20.618,38.477 22.058,39.929 23.879,39.929C25.249,39.929 26.477,39.025 26.886,37.619L22.851,37.619L22.851,36.554ZM36.025,38.852C35.455,40.315 34.225,41.132 32.751,41.132C30.789,41.132 29.251,39.582 29.251,37.631C29.251,35.638 30.876,34.091 32.714,34.091C34.674,34.091 36.237,35.621 36.237,37.681C36.237,37.781 36.237,37.907 36.214,38.067L30.478,38.067C30.664,39.26 31.613,40.042 32.736,40.042C33.583,40.042 34.3,39.632 34.71,38.852L36.026,38.852L36.025,38.852ZM34.998,37.114C34.696,35.872 33.852,35.164 32.751,35.164C31.635,35.164 30.698,35.922 30.478,37.114L34.998,37.114ZM37.626,35.308L36.593,35.308L36.593,34.271L37.626,34.271L37.626,32.151L38.753,32.151L38.753,34.271L39.745,34.271L39.745,35.308L38.753,35.308L38.753,39.918L39.745,39.918L39.745,40.975L37.626,40.975L37.626,35.308ZM41.383,35.308L40.355,35.308L40.355,34.271L41.383,34.271L41.383,32.151L42.513,32.151L42.513,34.271L43.501,34.271L43.501,35.308L42.514,35.308L42.514,39.918L43.5,39.918L43.5,40.975L41.383,40.975L41.383,35.308ZM45.645,42.08L46.689,42.08L47.214,40.774L45.05,35.324L44.171,35.324L44.171,34.271L47.148,34.271L47.148,35.325L46.228,35.325L47.791,39.305L49.373,35.325L48.452,35.325L48.452,34.27L51.423,34.27L51.423,35.324L50.55,35.324L47.865,42.079L48.802,42.079L48.802,43.129L45.645,43.129L45.645,42.079L45.645,42.08ZM54.819,39.907L55.799,39.907L55.799,33.212L54.819,33.212L54.819,32.152L58.034,32.152L58.034,33.212L57.024,33.212L57.024,39.906L58.034,39.906L58.034,40.975L54.819,40.975L54.819,39.906L54.819,39.907ZM58.974,39.919L59.929,39.919L59.929,35.309L58.984,35.309L58.984,34.27L61.044,34.27L61.044,35.223C61.458,34.501 62.039,34.16 62.871,34.16C63.851,34.16 64.567,34.628 64.975,35.495C65.496,34.58 66.135,34.148 67.039,34.148C68.691,34.148 69.447,35.349 69.447,37.01L69.447,39.918L70.415,39.918L70.415,40.974L67.359,40.974L67.359,39.918L68.316,39.918L68.316,36.948C68.316,35.818 67.795,35.212 66.868,35.212C65.799,35.212 65.228,36.005 65.228,37.585L65.228,39.918L66.2,39.918L66.2,40.974L63.167,40.974L63.167,39.918L64.133,39.918L64.133,37.694C64.133,36.12 63.96,35.212 62.646,35.212C61.629,35.212 61.045,36.005 61.045,37.585L61.045,39.918L62.015,39.918L62.015,40.974L58.975,40.974L58.975,39.918L58.974,39.919ZM76.566,40.087C75.86,40.801 75.149,41.122 74.256,41.122C72.222,41.122 70.769,39.596 70.769,37.611C70.769,35.646 72.17,34.119 74.209,34.119C75.164,34.119 75.929,34.431 76.595,35.152L76.595,34.271L78.662,34.271L78.662,35.308L77.711,35.308L77.711,39.907L78.673,39.907L78.673,40.975L76.566,40.975L76.566,40.087ZM74.272,35.2C73.032,35.2 71.962,36.193 71.962,37.586C71.962,39.026 73.032,40.029 74.279,40.029C75.506,40.029 76.576,38.985 76.576,37.647C76.576,36.23 75.506,35.2 74.272,35.2ZM80.928,41.369C81.166,42.08 81.798,42.46 82.742,42.46C83.937,42.46 84.94,41.602 84.989,40.365L84.999,40.029C84.331,40.774 83.596,41.108 82.67,41.108C80.684,41.108 79.22,39.606 79.22,37.611C79.22,35.686 80.635,34.111 82.632,34.111C83.596,34.111 84.368,34.457 85.015,35.213L85.015,34.271L87.086,34.271L87.086,35.325L86.132,35.325L86.132,39.872C86.132,42.175 84.802,43.443 82.742,43.443C81.114,43.443 80.052,42.748 79.618,41.369L80.928,41.369ZM85.015,37.659C85.015,36.245 83.958,35.199 82.716,35.199C81.48,35.199 80.411,36.204 80.411,37.597C80.411,39.05 81.489,40.042 82.716,40.042C83.946,40.042 85.015,38.985 85.015,37.658L85.015,37.659ZM94.283,38.852C93.711,40.315 92.486,41.132 91.006,41.132C90.997,41.132 90.987,41.132 90.978,41.132C89.071,41.132 87.502,39.563 87.502,37.656C87.502,37.648 87.502,37.64 87.502,37.632C87.502,35.638 89.132,34.092 90.971,34.092C92.931,34.092 94.496,35.62 94.496,37.682C94.496,37.782 94.496,37.907 94.472,38.067L88.732,38.067C88.923,39.26 89.867,40.042 90.994,40.042C91.841,40.042 92.558,39.632 92.964,38.852L94.284,38.852L94.283,38.852ZM93.253,37.114C92.957,35.872 92.111,35.164 91.006,35.164C89.89,35.164 88.957,35.922 88.732,37.114L93.253,37.114ZM95.186,38.862L96.306,38.862C96.306,39.509 96.862,40.158 97.695,40.158C98.399,40.158 98.815,39.78 98.815,39.133C98.815,38.417 98.277,38.153 97.099,37.916C95.599,37.611 95.275,36.829 95.275,36.017C95.275,34.901 96.065,34.082 97.334,34.082C97.884,34.082 98.314,34.271 98.675,34.665L98.675,34.258L99.605,34.258L99.605,36.044L98.572,36.044C98.416,35.387 98.042,35.091 97.408,35.091C96.789,35.091 96.44,35.398 96.44,35.921C96.44,36.664 97.047,36.804 98.091,37.071C99.394,37.423 100,37.969 100,39.061C100,40.315 99.128,41.149 97.742,41.149C97.108,41.149 96.628,40.949 96.204,40.486L96.204,40.983L95.186,40.983L95.186,38.862ZM5.555,26.859L0.742,26.859L0.742,8.891L5.555,8.891L5.555,26.859ZM10.175,19.931C11.659,21.559 13.917,22.783 16.287,22.783C18.51,22.783 20.066,21.411 20.066,19.523C20.066,16.19 15.252,15.783 11.769,13.746C9.733,12.559 8.1,10.78 8.1,7.852C8.1,3.223 12.364,0.557 16.66,0.557C19.289,0.557 21.734,1.187 24.18,3.002L21.588,6.705C20.548,5.742 18.808,5.004 17.103,5.004C15.216,5.004 13.103,5.816 13.103,7.816C13.103,12.004 25.069,10.705 25.069,19.45C25.069,24.041 20.955,27.227 16.288,27.227C12.807,27.227 9.584,25.785 6.917,23.337L10.177,19.931L10.175,19.931ZM40.025,26.859C39.397,27.079 37.95,27.227 37.025,27.227C34.135,27.227 32.025,26.264 30.801,24.634C29.876,23.412 29.467,21.821 29.467,19.263L29.467,12.966L24.467,12.966L24.467,8.89L29.467,8.89L29.467,3.89L34.283,3.89L34.283,8.89L40.211,8.89L40.211,12.966L34.283,12.966L34.283,19.816C34.283,20.932 34.467,21.596 34.876,22.079C35.356,22.636 36.133,22.967 37.319,22.967C38.024,22.967 38.952,22.86 39.285,22.783L40.025,26.859ZM50.706,8.52C56.149,8.52 60.262,12.707 60.262,17.894C60.262,23.079 56.149,27.227 50.706,27.227C45.262,27.227 41.148,23.079 41.148,17.894C41.148,12.707 45.262,8.52 50.706,8.52ZM50.706,22.783C53.521,22.783 55.446,20.597 55.446,17.893C55.446,15.188 53.521,12.966 50.706,12.966C47.889,12.966 45.965,15.188 45.965,17.894C45.965,20.597 47.889,22.784 50.706,22.784L50.706,22.783ZM79.278,23.191C77.164,26.007 74.496,27.227 71.128,27.227C65.572,27.227 61.495,23.079 61.495,17.894C61.495,12.671 65.681,8.52 71.165,8.52C74.276,8.52 77.054,9.967 78.721,12.113L75.313,15.113C74.351,13.855 72.908,12.966 71.165,12.966C68.386,12.966 66.312,15.153 66.312,17.894C66.312,20.709 68.351,22.784 71.277,22.784C73.239,22.784 74.794,21.596 75.573,20.412L79.278,23.191ZM90.108,16.967L100,26.859L93.516,26.859L85.92,19.077L85.92,26.859L81.107,26.859L81.107,0.927L85.92,0.927L85.92,14.71L92.106,8.892L98.889,8.892L90.108,16.968L90.108,16.967ZM0,3.706C-0,1.979 1.422,0.557 3.149,0.557C4.876,0.557 6.298,1.979 6.298,3.706C6.298,5.433 4.876,6.855 3.149,6.855C1.422,6.855 0,5.433 0,3.706Z" style="fill:rgb(93,118,141);fill-rule:nonzero;"/>
</svg>
